<?xml version="1.0" standalone="no"?>
<!DOCTYPE svg PUBLIC "-//W3C//DTD SVG 20010904//EN"
 "http://www.w3.org/TR/2001/REC-SVG-20010904/DTD/svg10.dtd">
<svg version="1.0" xmlns="http://www.w3.org/2000/svg"
 width="486.000000pt" height="486.000000pt" viewBox="0 0 486.000000 486.000000"
 preserveAspectRatio="xMidYMid meet">
<metadata>
Created by potrace 1.14, written by Peter Selinger 2001-2017
</metadata>
<g transform="translate(0.000000,486.000000) scale(0.100000,-0.100000)"
fill="#000000" stroke="none">
<path d="M3629 3100 c-149 -41 -196 -192 -93 -300 83 -88 231 -70 285 33 50
95 27 202 -52 246 -43 25 -97 32 -140 21z"/>
<path d="M2860 2678 c-137 -17 -255 -109 -325 -253 -38 -77 -39 -84 -39 -180
0 -92 3 -105 31 -160 69 -134 186 -210 338 -218 55 -3 154 13 200 33 17 7 32
14 35 15 3 0 16 7 29 14 38 21 47 2 32 -72 -28 -137 -77 -180 -205 -178 -67 0
-115 28 -143 81 -22 41 -28 45 -111 72 -48 16 -94 31 -102 33 -8 2 -34 10 -57
19 l-42 15 6 -47 c8 -72 8 -74 28 -132 29 -87 90 -173 155 -220 175 -124 435
-128 576 -8 47 41 114 127 114 148 0 6 4 18 9 28 31 55 44 132 46 271 3 123 7
684 5 716 0 7 -43 10 -122 9 -149 -2 -138 0 -138 -24 0 -25 5 -25 -78 5 -86
31 -171 43 -242 33z m143 -258 c59 -28 88 -74 88 -142 1 -57 -9 -86 -41 -118
-70 -70 -160 -74 -222 -9 -37 38 -48 74 -43 140 7 113 116 177 218 129z"/>
<path d="M4230 2675 c-113 -23 -222 -96 -286 -190 -28 -41 -65 -160 -68 -220
-8 -143 82 -317 207 -400 124 -82 306 -90 446 -18 105 55 196 167 207 258 4
33 2 35 -23 36 -16 0 -35 2 -44 4 -9 1 -57 6 -107 10 -85 6 -91 6 -101 -14 -7
-12 -31 -31 -54 -43 -68 -35 -143 -20 -196 37 -76 84 -67 171 24 241 73 55
169 36 220 -43 17 -27 25 -31 55 -28 19 2 67 7 105 11 39 4 81 8 95 8 82 5
-15 194 -145 282 -84 57 -238 88 -335 69z"/>
<path d="M1055 2666 c-64 -20 -105 -37 -105 -46 0 -16 -34 -20 -50 -5 -31 28
-119 52 -198 54 -83 2 -197 -26 -227 -55 -13 -14 -15 -14 -16 0 -1 9 -3 21 -4
26 -1 6 -3 14 -4 19 -1 10 -260 6 -270 -4 -6 -7 -8 -824 -1 -835 6 -9 70 -12
212 -11 l87 1 -4 73 c-3 39 -6 151 -7 247 -2 185 5 232 43 266 25 22 99 25
124 4 47 -39 51 -77 54 -507 l1 -82 150 1 150 1 1 241 c1 261 1 272 24 317 33
63 133 60 155 -5 12 -37 19 -265 8 -272 -4 -3 -4 -15 0 -27 4 -12 7 -75 7
-139 l-2 -118 154 0 c139 0 153 2 154 18 1 9 1 112 1 227 -2 309 -14 405 -65
495 -26 48 -45 68 -92 98 -35 23 -51 26 -140 28 -55 1 -118 -4 -140 -10z"/>
<path d="M1865 2672 c-70 -13 -158 -57 -208 -105 -122 -117 -165 -276 -123
-447 44 -175 192 -307 352 -314 89 -4 187 16 214 44 10 11 52 31 56 28 2 -2 4
-18 6 -36 l2 -32 144 0 144 0 -6 153 c-4 83 -9 197 -11 252 -9 195 -14 321
-15 387 l0 68 -132 -3 -133 -2 -5 -35 c-4 -25 -8 -31 -14 -21 -18 28 -119 63
-186 65 -36 1 -74 0 -85 -2z m232 -309 c53 -60 55 -146 5 -218 -74 -106 -200
-105 -272 4 -28 42 -35 118 -14 159 54 110 206 139 281 55z"/>
<path d="M3499 2663 c-2 -15 -1 -71 6 -343 10 -412 13 -488 19 -498 3 -5 73
-9 156 -9 l150 1 0 428 0 428 -165 0 c-91 0 -165 -3 -166 -7z"/>
</g>
</svg>
